<svg width="360" height="780" viewBox="0 0 360 780" fill="none" xmlns="http://www.w3.org/2000/svg">
<path d="M0 0H360V780H0V0Z" fill="#300059"/>
<g clip-path="url(#clip0_942_11940)">
<g opacity="0.5">
<g opacity="0.25">
<path d="M-29.1531 646.037L-16.2427 658.969L-14.4209 660.788H6.44125V681.618L8.26303 683.437L21.1967 696.346L8.26303 709.26L6.44125 711.079V731.909H-14.3837L-16.2055 733.728L-29.1345 746.637L-42.0682 733.728L-43.89 731.909H-64.7707V711.079L-66.5925 709.26L-79.5262 696.346L-66.5925 683.437L-64.7707 681.618V660.77H-43.9086L-42.0868 658.951L-29.1531 646.037ZM-29.1531 637.258L-46.4832 654.557H-70.9889V679.029L-88.3191 696.328L-70.9889 713.631V738.099H-46.4832L-29.1531 755.402L-11.8276 738.099H12.6781V713.631L30.0082 696.328L12.6781 679.029V654.557H-11.8276L-29.1531 637.258Z" fill="#5707A5"/>
<path d="M-29.1531 478.93L-16.2427 491.857L-14.4209 493.676H6.44125V514.506L8.26303 516.325L21.1967 529.239L8.26303 542.148L6.44125 543.967V564.796H-14.3837L-16.2427 566.629L-29.1531 579.529L-42.0868 566.629L-43.9086 564.81H-64.7707V543.967L-66.5925 542.148L-79.5262 529.239L-66.5925 516.325L-64.7707 514.506V493.676H-43.9086L-42.0868 491.857L-29.1531 478.93ZM-29.1531 470.15L-46.4832 487.468H-70.9889V511.935L-88.3191 529.239L-70.9889 546.537V571.005H-46.4832L-29.1531 588.308L-11.8276 571.005H12.6781V546.537L30.0082 529.239L12.6781 511.935V487.468H-11.8276L-29.1531 470.164V470.15Z" fill="#5707A5"/>
<path d="M54.5138 562.486L67.4475 575.399L69.2693 577.218H90.1315V598.048L91.9532 599.867L104.882 612.776L91.9532 625.69L90.1315 627.509V648.339H69.2693L67.4475 650.153L54.5138 663.062L41.5848 650.153L39.763 648.334H18.9009V627.509L17.0791 625.69L4.14542 612.776L17.0791 599.867L18.9009 598.048V577.218H39.763L41.5848 575.399L54.5138 562.486ZM54.5138 553.706L37.2023 571.005H12.678V595.477L-4.62421 612.776L12.7013 630.079V654.547H37.2023L54.5278 671.851L71.8579 654.547H96.3636V630.079L113.694 612.776L96.3636 595.477V571.005H71.844L54.5138 553.706V553.706Z" fill="#5707A5"/>
<path d="M54.5138 729.538L67.4475 742.447L69.2693 744.266H90.1315V765.095L91.9532 766.914L104.882 779.828L91.9532 792.737L90.1315 794.556V815.391H69.2693L67.4475 817.21L54.5138 830.119L41.5848 817.2L39.763 815.381H18.9009V794.547L17.0791 792.728L4.14542 779.819L17.0791 766.905L18.9009 765.086V744.256H39.763L41.5848 742.437L54.5138 729.528M54.5138 720.744L37.2023 738.057H12.678V762.525L-4.62421 779.828L12.7013 797.131V821.599H37.2023L54.5278 838.898L71.8579 821.599H96.3636V797.131L113.694 779.828L96.3636 762.525V738.057H71.844L54.5138 720.754V720.744Z" fill="#5707A5"/>
<path d="M138.19 646.037L151.124 658.969L152.946 660.788H173.808V681.618L175.63 683.437L188.563 696.346L175.63 709.26L173.808 711.079V731.909H152.946L151.124 733.728L138.19 746.637L125.261 733.728L123.439 731.909H102.577V711.079L100.755 709.26L87.8217 696.346L100.755 683.437L102.577 681.618V660.77H123.439L125.261 658.951L138.19 646.037ZM138.19 637.258L120.855 654.557H96.359V679.029L79.0289 696.328L96.359 713.631V738.099H120.855L138.181 755.402L155.511 738.099H180.017V713.631L197.347 696.328L180.017 679.029V654.557H155.52L138.19 637.258Z" fill="#5707A5"/>
<path d="M-29.1485 311.854L-16.2148 324.768L-14.393 326.587H6.46915V347.417L8.29092 349.236L21.2246 362.145L8.29092 375.059L6.46915 376.878V397.726H-14.3837L-16.2055 399.545L-29.1392 412.459L-42.0682 399.545L-43.8993 397.726H-64.7614V376.878L-66.5832 375.059L-79.5169 362.145L-66.5832 349.236L-64.7614 347.417V326.587H-43.8993L-42.0775 324.768L-29.1485 311.854M-29.1485 303.075L-46.4507 320.378H-70.9796V344.828L-88.3098 362.145L-70.9796 379.448V403.916H-46.4507L-29.1252 421.219L-11.7951 403.916H12.7106V379.448L30.0407 362.145L12.6874 344.828V320.378H-11.8183L-29.1485 303.066V303.075Z" fill="#5707A5"/>
<path d="M54.5139 395.406L67.4429 408.315L69.2647 410.134H90.1315V430.968L91.9533 432.787L104.882 445.696L91.9533 458.61L90.1315 460.429V481.25H69.2693L67.4476 483.069L54.5185 495.978L41.5895 483.069L39.7631 481.25H18.8963V460.429L17.0745 458.61L4.14544 445.696L17.0745 432.787L18.8963 430.968V410.134H39.7631L41.5848 408.315L54.5139 395.406ZM54.5139 386.627L37.2023 403.925H12.6781V428.393L-4.65207 445.696L12.6781 463V487.468H37.2023L54.5325 504.771L71.8626 487.468H96.3683V463L113.698 445.696L96.3683 428.393V403.925H71.844L54.5139 386.627V386.627Z" fill="#5707A5"/>
<path d="M138.181 478.93L151.115 491.843L152.936 493.662H173.798V514.492L175.62 516.311L188.554 529.225L175.62 542.134L173.798 543.953V564.783H152.922L151.115 566.629L138.181 579.529L125.252 566.629L123.43 564.81H102.568V543.967L100.746 542.148L87.8124 529.239L100.746 516.325L102.568 514.506V493.676H123.43L125.252 491.857L138.181 478.93ZM138.181 470.15L120.855 487.468H96.3497V511.935L79.0289 529.239L96.359 546.537V571.005H120.855L138.181 588.308L155.511 571.005H180.017V546.537L197.347 529.239L180.017 511.935V487.468H155.511L138.181 470.164V470.15Z" fill="#5707A5"/>
<path d="M54.5231 228.317L67.4522 241.226L69.2693 243.045H90.1361V263.879L91.9579 265.698L104.887 278.607L91.9579 291.516L90.1408 293.321V314.156H69.2693L67.4475 315.975L54.5185 328.884L41.5848 315.975L39.763 314.156H18.9055V293.321L17.0838 291.502L4.15472 278.593L17.0838 265.684L18.9055 263.865V243.045H39.7677L41.5895 241.226L54.5231 228.317M54.5231 219.533L37.2023 236.836H12.6873V261.304L-4.62421 278.607L12.7059 295.911V320.378H37.2023L54.5324 337.682L71.8626 320.378H96.3683V295.911L113.698 278.607L96.359 261.304V236.836H71.8533L54.5231 219.542V219.533Z" fill="#5707A5"/>
<path d="M138.181 311.882L151.115 324.791L152.936 326.61H173.798V347.426L175.62 349.245L188.554 362.159L175.62 375.068L173.798 376.887V397.726H152.922L151.101 399.545L138.167 412.459L125.252 399.536L123.43 397.726H102.568V376.887L100.746 375.068L87.8124 362.159L100.746 349.245L102.568 347.426V326.596H123.43L125.252 324.777L138.181 311.882ZM138.181 303.098L120.855 320.388H96.3497V344.856L79.0289 362.159L96.359 379.458V403.93H120.855L138.181 421.229L155.511 403.93H180.017V379.458L197.347 362.159L180.017 344.856V320.388H155.511L138.181 303.066V303.098Z" fill="#5707A5"/>
<path d="M-29.1671 144.779L-16.2427 157.688L-14.4255 159.507H6.44124V180.342L8.26302 182.161L21.1921 195.07L8.27232 207.983L6.45054 209.798V230.632H-14.4163L-16.2427 232.451L-29.1671 245.36L-42.0961 232.451L-43.9179 230.632H-64.7847V209.798L-66.6065 207.983L-79.5355 195.07L-66.6065 182.161L-64.7847 180.342V159.507H-43.9179L-42.0961 157.688L-29.1671 144.779ZM-29.1671 136L-46.4972 153.299H-71.0029V177.78L-88.333 195.07L-71.0029 212.373V236.841H-46.4972L-29.1671 254.144L-11.8369 236.841H12.6688V212.373L29.9989 195.07L12.6688 177.78V153.313H-11.8369L-29.1671 136.019V136Z" fill="#5707A5"/>
<path d="M222.805 562.49L235.739 575.399L237.556 577.218H258.418V598.048L260.24 599.867L273.169 612.781L260.24 625.69L258.418 627.509V648.343H237.551L235.739 650.153L222.805 663.062L209.876 650.153L208.054 648.334H187.188V627.509L185.366 625.69L172.441 612.781L185.37 599.867L187.192 598.048V577.218H208.059L209.881 575.399L222.81 562.49M222.81 553.706L205.48 571.01H180.969V595.477L163.639 612.781L180.969 630.084V654.552H205.475L222.805 671.851L240.135 654.552H264.641V630.084L281.971 612.781L264.641 595.477V571.01H240.135L222.805 553.706H222.81Z" fill="#5707A5"/>
<path d="M222.805 729.635L235.739 742.549L237.556 744.368H258.418V765.198L260.24 767.017L273.169 779.926L260.24 792.839L258.418 794.658V815.488H237.551L235.734 817.307L222.801 830.216L209.872 817.307L208.05 815.488H187.183V794.658L185.361 792.839L172.441 779.926L185.37 767.017L187.192 765.198V744.349H208.059L209.881 742.53L222.81 729.617M222.81 720.837L205.48 738.136H180.969V762.608L163.639 779.907L180.969 797.247V821.715H205.475L222.805 839.009L240.135 821.706H264.641V797.247L281.971 779.944L264.641 762.645V738.173H240.135L222.805 720.874L222.81 720.837Z" fill="#5707A5"/>
<path d="M306.486 646.037L319.415 658.969L321.237 660.788H342.104V681.618L343.926 683.437L356.855 696.346L343.93 709.241L342.108 711.06V731.89H321.242L319.42 733.709L306.491 746.618L293.562 733.709L291.74 731.89H270.873V711.06L269.051 709.241L256.122 696.328L269.051 683.419L270.873 681.6V660.77H291.74L293.562 658.951L306.491 646.037M306.491 637.258L289.161 654.557H264.65V679.029L247.32 696.328L264.65 713.631V738.099H289.156L306.486 755.402L323.816 738.099H348.322V713.631L365.652 696.328L348.322 679.029V654.557H323.816L306.486 637.258H306.491Z" fill="#5707A5"/>
<path d="M222.824 395.406L235.757 408.315L237.579 410.134H258.441V430.964L260.263 432.783L273.197 445.696L260.277 458.596L258.455 460.415V481.25H237.579L235.757 483.064L222.824 495.978L209.895 483.064L208.073 481.25H187.211V460.415L185.389 458.596L172.441 445.687L185.375 432.773L187.197 430.954V410.125H208.059L209.881 408.306L222.824 395.406ZM222.824 386.622L205.498 403.925H180.993V428.393L163.662 445.696L180.993 463V487.468H205.498L222.824 504.766L240.154 487.468H264.66V462.99L281.99 445.687L264.66 428.384V403.916H240.154L222.824 386.613V386.622Z" fill="#5707A5"/>
<path d="M306.486 478.93L319.415 491.843L321.237 493.662H342.104V514.492L343.926 516.311L356.855 529.225L343.93 542.148L342.108 543.967V564.796H321.242L319.415 566.629L306.486 579.529L293.557 566.629L291.735 564.81H270.869V543.967L269.047 542.148L256.118 529.239L269.047 516.325L270.869 514.506V493.676H291.735L293.557 491.857L306.486 478.93ZM306.486 470.15L289.156 487.468H264.65V511.935L247.32 529.239L264.65 546.537V571.005H289.156L306.486 588.308L323.816 571.005H348.322V546.537L365.652 529.239L348.322 511.935V487.468H323.816L306.486 470.164V470.15Z" fill="#5707A5"/>
<path d="M390.158 562.486L403.087 575.399L404.909 577.218H425.775V598.048L427.597 599.867L440.526 612.776L427.583 625.69L425.766 627.509V648.339H404.899L403.078 650.158L390.148 663.067L377.224 650.153L375.402 648.334H354.54V627.509L352.718 625.69L339.789 612.776L352.718 599.867L354.54 598.048V577.218H375.402L377.224 575.399L390.158 562.486ZM390.158 553.706L372.828 571.005H348.322V595.477L330.992 612.776L348.322 630.079V654.547H372.828L390.158 671.851L407.488 654.547H431.994V630.079L449.319 612.776L431.994 595.477V571.005H407.488L390.158 553.706V553.706Z" fill="#5707A5"/>
<path d="M390.158 729.538L403.087 742.447L404.909 744.266H425.775V765.095L427.593 766.914L440.526 779.828L427.583 792.737L425.761 794.556V815.391H404.895L403.073 817.21L390.144 830.119L377.224 817.2L375.402 815.381H354.54V794.547L352.718 792.728L339.789 779.819L352.718 766.905L354.54 765.086V744.256H375.402L377.224 742.437L390.158 729.528M390.158 720.744L372.828 738.048H348.322V762.516L330.992 779.819L348.322 797.122V821.59H372.828L390.158 838.889L407.488 821.59H431.994V797.122L449.319 779.819L431.994 762.516V738.048H407.488L390.158 720.744Z" fill="#5707A5"/>
<path d="M306.495 311.854L319.425 324.768L321.246 326.587H342.113V347.417L343.93 349.236L356.859 362.145L343.93 375.059L342.108 376.878V397.726H321.242L319.42 399.545L306.491 412.459L293.557 399.545L291.745 397.726H270.878V376.878L269.056 375.059L256.127 362.145L269.056 349.236L270.878 347.417V326.587H291.745L293.562 324.768L306.495 311.854ZM306.495 303.075L289.165 320.378H264.66V344.828L247.33 362.126L264.66 379.43V403.897H289.165L306.495 421.201L323.826 403.897H348.331V379.448L365.661 362.145L348.331 344.828V320.378H323.826L306.495 303.066V303.075Z" fill="#5707A5"/>
<path d="M390.153 395.406L403.087 408.315L404.909 410.134H425.771V430.968L427.593 432.787L440.526 445.696L427.583 458.61L425.761 460.429V481.25H404.899L403.078 483.069L390.144 495.978L377.215 483.069L375.393 481.25H354.54V460.429L352.718 458.61L339.785 445.696L352.718 432.787L354.54 430.968V410.134H375.402L377.224 408.315L390.153 395.406ZM390.153 386.627L372.828 403.925H348.322V428.393L330.992 445.696L348.322 463V487.468H372.828L390.153 504.771L407.483 487.468H431.989V463L449.319 445.696L431.989 428.393V403.925H407.483L390.153 386.627V386.627Z" fill="#5707A5"/>
<path d="M222.805 228.317L235.739 241.231L237.561 243.049H258.418V263.879L260.24 265.698L273.169 278.612L260.24 291.521L258.418 293.321V314.151H237.561L235.739 315.97L222.805 328.884L209.876 315.97L208.054 314.151H187.188V293.321L185.366 291.502L172.441 278.612L185.37 265.698L187.192 263.879V243.049H208.059L209.881 241.231L222.81 228.317M222.81 219.538L205.475 236.841H180.969V261.304L163.644 278.612L180.969 295.911V320.378H205.475L222.805 337.682L240.135 320.378H264.641V295.911L281.971 278.612L264.641 261.304V236.841H240.135L222.805 219.542L222.81 219.538Z" fill="#5707A5"/>
<path d="M390.162 228.317L403.096 241.226L404.918 243.045H425.78V263.879L427.602 265.698L440.531 278.607L427.583 291.516L425.761 293.335V314.17H404.899L403.078 315.989L390.144 328.898L377.215 315.989L375.393 314.17H354.549V293.321L352.728 291.502L339.794 278.607L352.728 265.698L354.549 263.879V243.045H375.412L377.233 241.226L390.162 228.317M390.162 219.533L372.837 236.836H348.327V261.304L331.001 278.607L348.327 295.911V320.378H372.837L390.162 337.682L407.493 320.378H431.998V295.911L449.328 278.607L431.998 261.304V236.836H407.493L390.162 219.542V219.533Z" fill="#5707A5"/>
<path d="M306.477 144.779L319.406 157.688L321.228 159.507H342.071V180.342L343.93 182.161L356.864 195.07L343.93 207.983L342.071 209.798V230.632H321.228L319.406 232.451L306.477 245.36L293.543 232.451L291.721 230.632H270.859V209.798L269.037 207.979L256.094 195.07L269.028 182.161L270.85 180.342V159.507H291.712L293.534 157.688L306.468 144.779M306.468 136L289.137 153.299H264.641V177.78L247.311 195.07L264.641 212.373V236.841H289.147L306.477 254.144L323.802 236.841H348.308V212.373L365.638 195.07L348.308 177.78V153.313H323.802L306.477 136.019L306.468 136Z" fill="#5707A5"/>
<path d="M138.166 144.779L151.095 157.688L152.917 159.507H173.76V180.342L175.619 182.161L188.553 195.07L175.619 207.983L173.76 209.798V230.632H152.917L151.095 232.451L138.166 245.36L125.232 232.451L123.41 230.632H102.548V209.798L100.727 207.979L87.7836 195.07L100.717 182.161L102.539 180.342V159.507H123.401L125.223 157.688L138.157 144.779M138.157 136L120.827 153.299H96.3301V177.78L79 195.07L96.3301 212.373V236.841H120.836L138.166 254.144L155.491 236.841H179.997V212.373L197.327 195.07L179.997 177.78V153.313H155.491L138.166 136.019L138.157 136Z" fill="#5707A5"/>
</g>
<g opacity="0.25">
<path d="M-29.1531 -21.9628L-16.2427 -9.03057L-14.4209 -7.21162H6.44125V13.6183L8.26303 15.4372L21.1967 28.3463L8.26303 41.2599L6.44125 43.0789V63.9087H-14.3837L-16.2055 65.7277L-29.1345 78.6368L-42.0682 65.7277L-43.89 63.9087H-64.7707V43.0789L-66.5925 41.2599L-79.5262 28.3463L-66.5925 15.4372L-64.7707 13.6183V-7.23017H-43.9086L-42.0868 -9.04912L-29.1531 -21.9628ZM-29.1531 -30.7421L-46.4832 -13.4434H-70.9889V11.029L-88.3191 28.3277L-70.9889 45.631V70.0988H-46.4832L-29.1531 87.4021L-11.8276 70.0988H12.6781V45.631L30.0082 28.3277L12.6781 11.029V-13.4434H-11.8276L-29.1531 -30.7421Z" fill="#5707A5"/>
<path d="M54.5138 -105.514L67.4475 -92.6006L69.2693 -90.7817H90.1315V-69.9518L91.9532 -68.1329L104.882 -55.2238L91.9532 -42.3101L90.1315 -40.4912V-19.6613H69.2693L67.4475 -17.847L54.5138 -4.93793L41.5848 -17.847L39.763 -19.6659H18.9009V-40.4912L17.0791 -42.3101L4.14542 -55.2238L17.0791 -68.1329L18.9009 -69.9518V-90.7817H39.763L41.5848 -92.6006L54.5138 -105.514ZM54.5138 -114.294L37.2023 -96.9949H12.678V-72.5225L-4.62421 -55.2238L12.7013 -37.9205V-13.4527H37.2023L54.5278 3.85062L71.8579 -13.4527H96.3636V-37.9205L113.694 -55.2238L96.3636 -72.5225V-96.9949H71.844L54.5138 -114.294V-114.294Z" fill="#5707A5"/>
<path d="M54.5138 61.5376L67.4475 74.4467L69.2693 76.2656H90.1315V97.0955L91.9532 98.9145L104.882 111.828L91.9532 124.737L90.1315 126.556V147.391H69.2693L67.4475 149.21L54.5138 162.119L41.5848 149.2L39.763 147.381H18.9009V126.547L17.0791 124.728L4.14542 111.819L17.0791 98.9052L18.9009 97.0862V76.2564H39.763L41.5848 74.4374L54.5138 61.5284M54.5138 52.7444L37.2023 70.057H12.678V94.5248L-4.62421 111.828L12.7013 129.131V153.599H37.2023L54.5278 170.898L71.8579 153.599H96.3636V129.131L113.694 111.828L96.3636 94.5248V70.057H71.844L54.5138 52.7537V52.7444Z" fill="#5707A5"/>
<path d="M138.19 -21.9628L151.124 -9.03057L152.946 -7.21162H173.808V13.6183L175.63 15.4372L188.563 28.3463L175.63 41.2599L173.808 43.0789V63.9087H152.946L151.124 65.7277L138.19 78.6368L125.261 65.7277L123.439 63.9087H102.577V43.0789L100.755 41.2599L87.8217 28.3463L100.755 15.4372L102.577 13.6183V-7.23017H123.439L125.261 -9.04912L138.19 -21.9628ZM138.19 -30.7421L120.855 -13.4434H96.359V11.029L79.0289 28.3277L96.359 45.631V70.0988H120.855L138.181 87.4021L155.511 70.0988H180.017V45.631L197.347 28.3277L180.017 11.029V-13.4434H155.52L138.19 -30.7421Z" fill="#5707A5"/>
<path d="M222.805 -105.51L235.739 -92.6006L237.556 -90.7817H258.418V-69.9518L260.24 -68.1329L273.169 -55.2192L260.24 -42.3101L258.418 -40.4912V-19.6567H237.551L235.739 -17.847L222.805 -4.93793L209.876 -17.847L208.054 -19.6659H187.188V-40.4912L185.366 -42.3101L172.441 -55.2192L185.37 -68.1329L187.192 -69.9518V-90.7817H208.059L209.881 -92.6006L222.81 -105.51M222.81 -114.294L205.48 -96.9903H180.969V-72.5225L163.639 -55.2192L180.969 -37.9159V-13.4481H205.475L222.805 3.85062L240.135 -13.4481H264.641V-37.9159L281.971 -55.2192L264.641 -72.5225V-96.9903H240.135L222.805 -114.294H222.81Z" fill="#5707A5"/>
<path d="M222.805 61.6351L235.739 74.5487L237.556 76.3677H258.418V97.1976L260.24 99.0165L273.169 111.926L260.24 124.839L258.418 126.658V147.488H237.551L235.734 149.307L222.801 162.216L209.872 149.307L208.05 147.488H187.183V126.658L185.361 124.839L172.441 111.926L185.37 99.0165L187.192 97.1976V76.3491H208.059L209.881 74.5302L222.81 61.6165M222.81 52.8372L205.48 70.1359H180.969V94.6083L163.639 111.907L180.969 129.247V153.715H205.475L222.805 171.009L240.135 153.706H264.641V129.247L281.971 111.944L264.641 94.6455V70.173H240.135L222.805 52.8744L222.81 52.8372Z" fill="#5707A5"/>
<path d="M306.486 -21.9628L319.415 -9.03057L321.237 -7.21162H342.104V13.6183L343.926 15.4372L356.855 28.3463L343.93 41.2414L342.108 43.0604V63.8902H321.242L319.42 65.7091L306.491 78.6182L293.562 65.7091L291.74 63.8902H270.873V43.0604L269.051 41.2414L256.122 28.3277L269.051 15.4187L270.873 13.5997V-7.23017H291.74L293.562 -9.04912L306.491 -21.9628M306.491 -30.7421L289.161 -13.4434H264.65V11.029L247.32 28.3277L264.65 45.631V70.0988H289.156L306.486 87.4021L323.816 70.0988H348.322V45.631L365.652 28.3277L348.322 11.029V-13.4434H323.816L306.486 -30.7421H306.491Z" fill="#5707A5"/>
<path d="M390.158 -105.514L403.087 -92.6006L404.909 -90.7817H425.775V-69.9518L427.597 -68.1329L440.526 -55.2238L427.583 -42.3101L425.766 -40.4912V-19.6613H404.899L403.078 -17.8423L390.148 -4.93328L377.224 -17.847L375.402 -19.6659H354.54V-40.4912L352.718 -42.3101L339.789 -55.2238L352.718 -68.1329L354.54 -69.9518V-90.7817H375.402L377.224 -92.6006L390.158 -105.514ZM390.158 -114.294L372.828 -96.9949H348.322V-72.5225L330.992 -55.2238L348.322 -37.9205V-13.4527H372.828L390.158 3.85062L407.488 -13.4527H431.994V-37.9205L449.319 -55.2238L431.994 -72.5225V-96.9949H407.488L390.158 -114.294V-114.294Z" fill="#5707A5"/>
<path d="M390.158 61.5376L403.087 74.4467L404.909 76.2656H425.775V97.0955L427.593 98.9145L440.526 111.828L427.583 124.737L425.761 126.556V147.391H404.895L403.073 149.21L390.144 162.119L377.224 149.2L375.402 147.381H354.54V126.547L352.718 124.728L339.789 111.819L352.718 98.9052L354.54 97.0862V76.2564H375.402L377.224 74.4374L390.158 61.5284M390.158 52.7444L372.828 70.0478H348.322V94.5156L330.992 111.819L348.322 129.122V153.59H372.828L390.158 170.889L407.488 153.59H431.994V129.122L449.319 111.819L431.994 94.5156V70.0478H407.488L390.158 52.7444Z" fill="#5707A5"/>
</g>
</g>
</g>
<defs>
<clipPath id="clip0_942_11940">
<rect width="705" height="839" fill="white" transform="translate(-172)"/>
</clipPath>
</defs>
</svg>
